HIERARCHY
ROOT Hips
{
	OFFSET 0.00000 0.00000 0.00000
	CHANNELS 6 Xposition Yposition Zposition Zrotation Yrotation Xrotation 
	JOINT RightUpLegDummy
	{
		OFFSET 0 0 0
		CHANNELS 3 Zrotation Yrotation Xrotation
		JOINT RightUpLeg
		{
			OFFSET -3.52197 -3.41223 0.04002
			CHANNELS 3 Zrotation Yrotation Xrotation
			JOINT RightLeg
			{
				OFFSET -1.06336 -17.58347 1.60435
				CHANNELS 3 Zrotation Yrotation Xrotation
				JOINT RightFoot
				{
					OFFSET -0.27018 -17.05419 -1.63900
					CHANNELS 3 Zrotation Yrotation Xrotation
					JOINT RightToes
					{
						OFFSET 0.00298 -1.73825 3.34613
						CHANNELS 3 Zrotation Yrotation Xrotation
						End Site
						{
							OFFSET 0.00480 -0.05416 3.85043
						}
					}
				}
			}
		}
	}
	JOINT SpineDummy
	{
		OFFSET 0 0 0
		CHANNELS 3 Zrotation Yrotation Xrotation
		JOINT Spine
		{
			OFFSET 0.00000 4.14613 0.00000
			CHANNELS 3 Zrotation Yrotation Xrotation
			JOINT Spine1
			{
				OFFSET 0.00000 10.93369 0.05002
				CHANNELS 3 Zrotation Yrotation Xrotation
				JOINT HEadDummy
				{
					OFFSET 0 0 0
					CHANNELS 3 Zrotation Yrotation Xrotation
					JOINT Head
					{
						OFFSET 0.00000 5.52901 0.00438
						CHANNELS 3 Zrotation Yrotation Xrotation
						End Site
						{
							OFFSET -0.11417 7.29012 0.98962
						}
					}
				}
				JOINT LeftShoulder1Dummy
				{
					OFFSET 0 0 0
					CHANNELS 3 Zrotation Yrotation Xrotation
					JOINT LeftShoulder1
					{
						OFFSET 3.53937 -0.14262 -0.08662
						CHANNELS 3 Zrotation Yrotation Xrotation
						JOINT LeftArm
						{
							OFFSET 4.04833 -0.00133 0.12681
							CHANNELS 3 Zrotation Yrotation Xrotation
							JOINT LeftForeArm
							{
								OFFSET 9.67557 0.03289 -0.56117
								CHANNELS 3 Zrotation Yrotation Xrotation
								JOINT LeftHand
								{
									OFFSET 10.17679 0.06873 0.40307
									CHANNELS 3 Zrotation Yrotation Xrotation
									End Site
									{
										OFFSET 6.59293 -0.21483 0.59213
									}
								}
							}
						}
					}
				}
				JOINT RightShoulderDummy
				{
					OFFSET 0 0 0
					CHANNELS 3 Zrotation Yrotation Xrotation
					JOINT RightShoulder
					{
						OFFSET -3.53937 -0.14262 -0.08660
						CHANNELS 3 Zrotation Yrotation Xrotation
						JOINT RightArm
						{
							OFFSET -4.04833 -0.00132 0.12683
							CHANNELS 3 Zrotation Yrotation Xrotation
							JOINT RightForeArm
							{
								OFFSET -9.67570 0.03289 -0.56114
								CHANNELS 3 Zrotation Yrotation Xrotation
								JOINT RightHand
								{
									OFFSET -10.17679 0.06867 0.40304
									CHANNELS 3 Zrotation Yrotation Xrotation
									End Site
									{
										OFFSET -6.54841 -0.21495 0.59212
									}
								}
							}
						}
					}
				}
			}
		}
	}
	JOINT LeftUpLegDummy
	{
		OFFSET 0 0 0
		CHANNELS 3 Zrotation Yrotation Xrotation
		JOINT LeftUpLeg
		{
			OFFSET 3.52197 -3.41223 0.04002
			CHANNELS 3 Zrotation Yrotation Xrotation
			JOINT LeftLeg
			{
				OFFSET 1.08359 -17.35354 1.60336
				CHANNELS 3 Zrotation Yrotation Xrotation
				JOINT LeftFoot
				{
					OFFSET 0.24986 -17.28405 -1.63802
					CHANNELS 3 Zrotation Yrotation Xrotation
					JOINT LeftToes
					{
						OFFSET -0.01575 -1.73822 3.34610
						CHANNELS 3 Zrotation Yrotation Xrotation
						End Site
						{
							OFFSET 0.03150 -0.01868 3.85031
						}
					}
				}
			}
		}
	}
}
MOTION
Frames: 19
Frame Time: 0.033333
8.3420 40.9989 -0.7857 179.4120 -82.7634 -177.9750 0.0000 0.0000 0.0000 -5.1855 -5.7944 0.2672 -2.1923 -2.2478 1.8671 -0.9258 0.1062 -2.6937 0.0000 0.0000 -0.0000 0.0000 0.0000 0.0000 2.7579 1.6589 -6.0598 -2.8777 2.0960 4.1436 0.0000 0.0000 0.0000 1.1968 -5.2916 0.3478 0.0000 0.0000 0.0000 2.2828 4.5701 -0.0196 6.9127 -17.3925 -34.2617 -8.7636 5.2392 40.5265 4.2939 -1.1272 -0.2004 0.0000 0.0000 0.0000 -1.0990 -1.0240 0.2179 -5.4649 13.6264 -27.8615 4.7065 -5.4763 28.6583 -4.8523 -0.7222 -0.1666 0.0000 0.0000 0.0000 6.2810 8.3340 0.3536 0.3064 -0.8909 -0.1397 0.4470 -0.0580 -0.9755 -0.0000 -0.0000 0.0000
8.3373 40.9989 -0.7853 179.3800 -82.7786 -177.9430 0.0000 0.0000 0.0000 -5.1926 -5.8037 0.2689 -2.1958 -2.2626 1.8933 -0.8605 0.1021 -2.7119 0.0000 0.0000 -0.0000 0.0000 0.0000 0.0000 2.7790 1.6601 -6.0672 -2.9167 2.1050 4.1152 0.0000 0.0000 0.0000 1.2699 -5.3051 0.3470 0.0000 0.0000 0.0000 2.3056 4.5751 -0.0196 6.9492 -17.4436 -34.3497 -8.7305 5.2429 40.3660 4.2395 -1.0975 -0.2010 0.0000 0.0000 0.0000 -1.1025 -1.0466 0.2179 -5.4268 13.6408 -27.9304 4.6794 -5.4782 28.5245 -4.7637 -0.7236 -0.1635 0.0000 0.0000 0.0000 6.2804 8.3320 0.3666 0.2944 -0.9032 -0.1606 0.4954 -0.0611 -0.9416 -0.0000 -0.0000 0.0000
8.3268 40.9989 -0.7833 179.2910 -82.8067 -177.8450 0.0000 0.0000 0.0000 -5.2087 -5.8208 0.2794 -2.2009 -2.2874 1.9044 -0.8295 0.1001 -2.7140 0.0000 0.0000 -0.0000 0.0000 0.0000 0.0000 2.8291 1.6681 -6.1450 -2.9999 2.1291 4.1296 0.0000 0.0000 0.0000 1.3789 -5.3527 0.3122 0.0000 0.0000 0.0000 2.2946 4.5883 -0.0196 7.0775 -17.5411 -34.4797 -8.6867 5.2448 40.2992 4.2417 -1.1392 -0.2031 0.0000 0.0000 0.0000 -1.1050 -1.0718 0.2179 -5.3967 13.6210 -27.9454 4.6523 -5.4765 28.6661 -4.6411 -0.7123 -0.1598 0.0000 0.0000 0.0000 6.2618 8.3147 0.3835 0.2965 -0.9085 -0.1977 0.5309 -0.0634 -0.9106 -0.0000 -0.0000 0.0000
8.3134 40.9989 -0.7811 179.1680 -82.8305 -177.7060 0.0000 0.0000 0.0000 -5.2267 -5.8300 0.3024 -2.2068 -2.2905 1.8831 -0.8587 0.1019 -2.6973 0.0000 0.0000 -0.0000 0.0000 0.0000 0.0000 2.9055 1.6804 -6.2663 -3.1402 2.1658 4.1963 0.0000 0.0000 0.0000 1.3921 -5.4209 0.2893 0.0000 0.0000 0.0000 2.2907 4.5978 -0.0196 7.2012 -17.6114 -34.5326 -8.6753 5.2431 40.3862 4.3534 -1.2118 -0.2102 0.0000 0.0000 0.0000 -1.0485 -1.0706 0.2179 -5.4455 13.5280 -27.8835 4.6578 -5.4737 28.8733 -4.5077 -0.7515 -0.1541 0.0000 0.0000 0.0000 6.2321 8.2868 0.3939 0.3103 -0.9044 -0.2257 0.5238 -0.0629 -0.9159 -0.0000 -0.0000 0.0000
8.3001 40.9989 -0.7794 179.0420 -82.8834 -177.5700 0.0000 0.0000 0.0000 -5.2493 -5.8433 0.3285 -2.2090 -2.3155 1.8752 -0.8423 0.1010 -2.7265 0.0000 0.0000 -0.0000 0.0000 0.0000 0.0000 2.9517 1.6586 -6.3658 -3.2682 2.1664 4.2460 0.0000 0.0000 0.0000 1.3381 -5.4430 0.2828 0.0000 0.0000 0.0000 2.3971 4.6214 -0.0196 7.1818 -17.6349 -34.4592 -8.7177 5.2450 40.2733 4.4837 -1.2257 -0.2172 0.0000 0.0000 0.0000 -0.9665 -1.0596 0.2179 -5.4829 13.4678 -27.9448 4.6426 -5.4771 28.6278 -4.3629 -0.7878 -0.1482 0.0000 0.0000 0.0000 6.2138 8.2796 0.3911 0.3014 -0.9478 -0.2287 0.5343 -0.0636 -0.9315 -0.0000 -0.0000 0.0000
8.2885 40.9989 -0.7769 178.9430 -82.9820 -177.4670 0.0000 0.0000 0.0000 -5.2788 -5.8774 0.3573 -2.2025 -2.3874 1.8850 -0.7903 0.0978 -2.7755 0.0000 0.0000 -0.0000 0.0000 0.0000 0.0000 2.9099 1.5914 -6.4502 -3.2608 2.0996 4.2680 0.0000 0.0000 0.0000 1.2815 -5.4445 0.3021 0.0000 0.0000 0.0000 2.5262 4.6675 -0.0196 7.1150 -17.6711 -34.3788 -8.7676 5.2485 40.0792 4.5610 -1.2115 -0.2206 0.0000 0.0000 0.0000 -0.9508 -1.0395 0.2179 -5.4725 13.5214 -28.0897 4.5932 -5.4795 28.4639 -4.3702 -0.7116 -0.1508 0.0000 0.0000 0.0000 6.2043 8.2774 0.3695 0.2792 -1.0429 -0.2042 0.5755 -0.0662 -0.9403 -0.0000 -0.0000 0.0000
8.2797 40.9990 -0.7718 178.8820 -83.0525 -177.4070 0.0000 0.0000 0.0000 -5.3038 -5.9106 0.4006 -2.1926 -2.4231 1.8431 -0.8108 0.0989 -2.7279 0.0000 0.0000 -0.0000 0.0000 0.0000 0.0000 2.8194 1.5362 -6.5457 -3.1406 2.0251 4.3096 0.0000 0.0000 0.0000 1.2818 -5.4720 0.3159 0.0000 0.0000 0.0000 2.4821 4.7075 -0.0196 7.2290 -17.7674 -34.4449 -8.7580 5.2435 40.3238 4.5253 -1.1679 -0.2174 0.0000 0.0000 0.0000 -0.9821 -0.9974 0.2179 -5.5337 13.6045 -28.0549 4.6001 -5.4756 28.9464 -4.5549 -0.6390 -0.1593 0.0000 0.0000 0.0000 6.1803 8.2467 0.3436 0.2915 -1.0825 -0.1614 0.5872 -0.0670 -0.9638 -0.0000 -0.0000 0.0000
8.2747 41.0002 -0.7654 178.8540 -83.0453 -177.3880 0.0000 0.0000 0.0000 -5.3200 -5.9188 0.4685 -2.1870 -2.3807 1.7177 -0.8219 0.0992 -2.5796 0.0000 0.0000 -0.0000 0.0000 0.0000 0.0000 2.7657 1.5251 -6.6038 -3.0736 2.0037 4.3530 0.0000 0.0000 0.0000 1.3329 -5.4271 0.2562 0.0000 0.0000 0.0000 2.3150 4.7362 -0.0205 7.4416 -17.8324 -34.6395 -8.6734 5.2372 40.6699 4.1851 -1.0264 -0.1965 0.0000 0.0000 0.0000 -0.9696 -0.9795 0.2180 -5.5629 13.5962 -28.0953 4.5915 -5.5266 28.7548 -4.4341 -0.7822 -0.1509 0.0000 0.0000 0.0000 6.1456 8.2066 0.3453 0.3315 -1.0163 -0.1345 0.5668 -0.0657 -0.9916 -0.0000 -0.0000 0.0000
8.2752 41.0054 -0.7561 178.8840 -83.0476 -177.4480 0.0000 0.0000 0.0000 -5.3494 -5.9379 0.5521 -2.1768 -2.3451 1.5852 -0.6242 0.0847 -2.4172 0.0000 0.0000 -0.0000 0.0000 0.0000 0.0000 2.7279 1.4870 -6.5555 -3.0684 1.9715 4.3220 0.0000 0.0000 0.0000 1.3489 -5.1757 0.0608 0.0000 0.0000 0.0000 2.2249 4.7908 -0.0248 7.3402 -17.5680 -34.7611 -8.5479 5.3574 40.0099 3.4276 -0.9858 -0.1584 0.0000 0.0000 0.0000 -0.8946 -1.0357 0.2186 -5.1324 13.3707 -28.9678 4.1712 -4.9290 26.5403 -3.5491 -0.9564 -0.1178 0.0000 0.0000 0.0000 6.1284 8.1951 0.3774 0.3397 -0.9605 -0.1498 0.5766 -0.0663 -0.9742 -0.0000 -0.0000 0.0000
8.2872 41.0159 -0.7319 178.9900 -83.1205 -177.6110 0.0000 0.0000 0.0000 -5.4217 -6.0223 0.6148 -2.1455 -2.2981 1.5290 -0.2959 0.0572 -2.1785 0.0000 0.0000 -0.0000 0.0000 0.0000 0.0000 2.5730 1.3668 -6.3790 -2.8836 1.8336 4.2118 0.0000 0.0000 0.0000 1.3542 -4.9123 -0.3424 0.0000 0.0000 0.0000 2.0705 4.8746 -0.0317 6.7361 -16.5715 -34.5678 -8.5548 4.6844 38.5736 2.7287 -1.5042 -0.1331 0.0000 0.0000 0.0000 -0.7337 -1.0950 0.2229 -4.1376 12.6073 -30.6706 3.2023 -0.9246 24.3700 -2.2782 -0.5276 -0.0822 0.0000 0.0000 0.0000 6.1128 8.1829 0.4072 0.3188 -0.9764 -0.1735 0.6136 -0.0687 -0.9226 -0.0000 -0.0000 0.0000
8.3202 41.0268 -0.6785 179.1350 -83.1153 -177.8430 0.0000 0.0000 0.0000 -5.5372 -6.1529 0.5837 -2.0998 -2.0404 1.5864 -0.0805 0.0344 -1.7601 0.0000 0.0000 -0.0000 0.0000 0.0000 0.0000 2.2536 1.2494 -6.0608 -2.3894 1.6429 4.0979 0.0000 0.0000 0.0000 1.2447 -4.7285 -1.0380 0.0000 0.0000 0.0000 1.4932 4.9536 -0.0404 5.7542 -14.7454 -31.1893 -8.4372 -1.8286 35.9820 2.9822 -2.6763 -0.1709 0.0000 0.0000 0.0000 -0.3737 -1.0500 0.2373 -3.0695 11.0147 -30.8290 1.9331 7.3597 24.0637 -1.5568 1.1912 -0.0700 0.0000 0.0000 0.0000 6.0444 8.1215 0.3984 0.3363 -0.8907 -0.0917 0.6402 -0.0704 -0.9284 -0.0000 -0.0000 0.0000
8.3793 41.0339 -0.5939 179.3670 -82.8610 -178.1830 0.0000 0.0000 0.0000 -5.6685 -6.2560 0.4043 -2.0566 -1.5193 1.7551 0.1217 0.0098 -1.2753 0.0000 0.0000 -0.0000 0.0000 0.0000 0.0000 1.9222 1.2305 -5.6268 -1.8486 1.5298 4.0567 0.0000 0.0000 0.0000 1.0727 -4.5863 -2.0072 0.0000 0.0000 0.0000 0.6544 5.0510 -0.0528 4.3075 -12.5736 -18.4770 -5.2320 -16.3726 26.0074 4.4433 -3.8208 -0.2986 0.0000 0.0000 0.0000 0.1818 -0.9372 0.2649 -2.2904 8.9054 -27.2242 0.0585 19.8887 22.6305 -1.8230 3.9480 -0.1100 0.0000 0.0000 0.0000 5.9293 8.0605 0.3452 0.3890 -0.5601 0.1479 0.7219 -0.0768 -1.0096 -0.0000 -0.0000 0.0000
8.4602 41.0430 -0.4834 179.9190 -82.4358 -178.8530 0.0000 0.0000 0.0000 -5.7953 -6.3139 0.0963 -2.0032 -0.9245 2.0421 0.5954 -0.0396 -0.8416 0.0000 0.0000 -0.0000 0.0000 0.0000 0.0000 1.7874 1.2379 -5.2541 -1.6420 1.4911 4.1689 0.0000 0.0000 0.0000 0.9145 -4.3090 -2.9223 0.0000 0.0000 0.0000 0.2404 5.2096 -0.0697 2.8934 -10.5298 -9.7080 1.1763 -33.3283 17.7827 5.9105 -4.1964 -0.4208 0.0000 0.0000 0.0000 0.6812 -0.8685 0.2874 -1.7471 7.0983 -26.8665 -0.8650 34.9889 21.5276 -2.0838 6.7461 -0.1578 0.0000 0.0000 0.0000 5.8497 8.0980 0.2690 0.3891 -0.1379 0.4538 0.9319 -0.0950 -1.0702 -0.0000 -0.0000 0.0000
8.5580 41.0634 -0.3428 -179.0830 -82.0301 179.9920 0.0000 0.0000 0.0000 -5.9202 -6.3866 -0.2579 -1.9138 -0.3124 2.4534 1.1905 -0.1080 -0.2481 0.0000 0.0000 -0.0000 0.0000 0.0000 0.0000 1.9126 1.1368 -5.1627 -1.8399 1.4167 4.5367 0.0000 0.0000 0.0000 0.8389 -3.8063 -3.3201 0.0000 0.0000 0.0000 0.4394 5.3056 -0.0774 1.9965 -9.5190 -14.9387 0.8292 -51.5365 20.8593 5.7064 -3.9704 -0.3969 0.0000 0.0000 0.0000 0.9298 -0.8400 0.2982 -0.7719 6.8615 -27.2714 -0.6005 50.7237 16.3504 -0.8594 9.1524 -0.0393 0.0000 0.0000 0.0000 5.8306 8.2080 0.2221 0.3273 0.2020 0.7122 1.2003 -0.1178 -1.0527 -0.0000 -0.0000 0.0000
8.6782 41.0912 -0.1612 -178.0740 -81.6462 178.7100 0.0000 0.0000 0.0000 -6.0727 -6.5033 -0.6159 -1.8190 0.4375 3.0008 1.5548 -0.1682 0.6391 0.0000 0.0000 -0.0000 0.0000 0.0000 0.0000 2.1262 0.9409 -5.3771 -2.2117 1.2860 5.2487 0.0000 0.0000 0.0000 1.1382 -3.2921 -3.0959 0.0000 0.0000 0.0000 0.5334 5.0558 -0.0538 1.3565 -10.6735 -17.0266 0.8748 -68.8609 17.2265 3.5845 -3.6030 -0.2311 0.0000 0.0000 0.0000 1.0256 -0.7784 0.3078 0.5361 9.0895 -27.1108 -0.1015 65.2903 9.4527 1.7254 10.7788 0.3015 0.0000 0.0000 0.0000 5.7546 8.2467 0.2450 0.3193 0.5840 0.9647 1.4582 -0.1398 -1.0134 -0.0000 -0.0000 0.0000
8.8324 41.1081 0.0611 -177.5870 -81.1449 177.8200 0.0000 0.0000 0.0000 -6.2736 -6.5896 -1.0256 -1.7975 1.2320 3.6832 1.8548 -0.2254 1.4615 0.0000 0.0000 -0.0000 0.0000 0.0000 0.0000 2.1742 0.7608 -5.7335 -2.5186 1.1675 6.3355 0.0000 0.0000 0.0000 1.6575 -2.9518 -2.4752 0.0000 0.0000 0.0000 -0.1146 4.2971 0.0170 1.6208 -14.4335 -18.4561 1.2150 -83.0186 10.6610 0.7014 -2.7766 -0.0276 0.0000 0.0000 0.0000 1.1150 -0.6723 0.3219 1.8149 14.0230 -26.5228 0.8076 77.7124 4.9883 4.0750 11.4689 0.6452 0.0000 0.0000 0.0000 5.5277 8.1649 0.2675 0.4244 1.1940 1.4079 1.7815 -0.1675 -1.0462 -0.0000 -0.0000 0.0000
9.0288 41.1028 0.3144 -177.5820 -80.4494 177.3620 0.0000 0.0000 0.0000 -6.5143 -6.5121 -1.5693 -1.8640 1.8904 4.4731 2.3984 -0.3041 1.9802 0.0000 0.0000 -0.0000 0.0000 0.0000 0.0000 1.9340 0.6295 -6.0559 -2.6627 1.0775 7.7364 0.0000 0.0000 0.0000 2.0725 -2.6745 -1.9988 0.0000 0.0000 0.0000 -1.3088 3.1185 0.1452 2.4607 -20.3978 -19.4593 -178.3673 -86.0180 -176.5181 -1.6570 -1.1510 0.0910 0.0000 0.0000 0.0000 1.1998 -0.4809 0.3450 3.1533 21.1554 -25.3115 7.2790 87.5819 7.5839 5.4199 11.5827 0.8402 0.0000 0.0000 0.0000 5.2208 8.0893 0.1752 0.5399 1.9583 2.1346 2.1903 -0.2017 -1.1967 -0.0000 -0.0000 0.0000
9.2746 41.0818 0.5977 -177.9210 -79.4896 177.2590 0.0000 0.0000 0.0000 -6.7897 -6.1391 -2.3395 -1.9362 2.5920 5.3979 2.8036 -0.3746 2.5872 0.0000 0.0000 -0.0000 0.0000 0.0000 0.0000 1.3950 0.5165 -6.1199 -2.6377 0.9857 9.2183 0.0000 0.0000 0.0000 2.2779 -2.2430 -2.1583 0.0000 0.0000 0.0000 -2.5823 1.7688 0.3200 3.2612 -27.4245 -20.2511 -178.2223 -78.0594 177.8128 -3.3594 0.3628 0.1208 0.0000 0.0000 0.0000 1.3401 -0.0716 0.3939 4.6345 29.4141 -23.6364 174.3127 85.3090 171.1230 6.3612 11.5114 0.9685 0.0000 0.0000 0.0000 4.8968 8.1183 -0.0210 0.5746 2.8311 2.9985 2.5544 -0.2306 -1.4412 -0.0000 -0.0000 0.0000
9.5799 41.0465 0.9205 -178.8940 -78.1019 177.8490 0.0000 0.0000 0.0000 -7.1501 -5.2454 -3.5342 -1.9636 3.3009 6.5794 2.6061 -0.3863 3.4941 0.0000 0.0000 -0.0000 0.0000 0.0000 0.0000 0.5207 0.4317 -5.6838 -2.4774 0.9074 10.4287 0.0000 0.0000 0.0000 2.4314 -1.4501 -3.1599 0.0000 0.0000 0.0000 -3.8420 0.5521 0.5075 4.0571 -34.3253 -20.9668 -178.0429 -72.8543 173.6184 -5.5581 0.9471 0.1673 0.0000 0.0000 0.0000 1.7312 0.5541 0.4786 5.9391 37.8203 -22.0488 176.1575 81.1288 170.6383 7.6379 11.4446 1.1427 0.0000 0.0000 0.0000 4.4186 8.1534 -0.3559 0.6342 4.1317 3.9339 2.8688 -0.2540 -1.7220 -0.0000 -0.0000 0.0000
